<?xml version="1.0" encoding="utf-8"?>
<!-- Generator: Adobe Illustrator 24.1.2, SVG Export Plug-In . SVG Version: 6.00 Build 0)  -->
<svg version="1.1" id="Capa_1" xmlns="http://www.w3.org/2000/svg" xmlns:xlink="http://www.w3.org/1999/xlink" x="0px" y="0px"
	 viewBox="0 0 1100 200" style="enable-background:new 0 0 1100 200;" xml:space="preserve">
<style type="text/css">
	.st0{fill:#FFFFFF;}
</style>
<g>
	<path class="st0" d="M46.4,158.2c-2.3,0-4.7,0.1-7.1,0.4c-2.4,0.2-4.7,0.5-6.8,0.7c-2.1,0.2-4.4,0.6-7,1.1l1.1-8.4
		c5.7-1.1,9.6-2.7,11.5-4.9c1.9-2.1,2.8-5.8,2.8-10.9L41,59.2c0-3.9-0.4-6.5-1.3-7.9c-0.9-1.3-2.7-2-5.5-2c-1.1,0-3.2,0.1-6.2,0.4
		L27.7,49l1.3-8.1c2.8,0.1,5.3,0.2,7.5,0.3c2.2,0.1,4.5,0.1,6.8,0.2c2.3,0.1,4.3,0.1,6,0.1c1.3,0,2.9,0,4.8-0.1
		c1.8-0.1,3.7-0.1,5.7-0.2c2-0.1,3.8-0.1,5.5-0.2c1.7-0.1,3.6-0.2,5.7-0.3c11.6,0,20.5,2.4,26.7,7.1c6.2,4.8,9.3,11.7,9.3,20.7
		c0,6-1.8,11.5-5.5,16.4c-3.7,4.9-8.9,8.9-15.8,11.8c6,1.2,11.1,3.2,15.3,5.9c4.2,2.7,7.4,5.9,9.7,9.6c2.3,3.7,3.4,7.8,3.4,12.4
		c0,6.4-2,12.2-6,17.6c-4,5.4-9.2,9.7-15.8,12.9c-6.5,3.2-13.6,4.9-21.3,4.9c-2,0-3.9-0.1-6-0.3c-2-0.2-4-0.4-6-0.6
		c-2-0.2-4-0.5-6.1-0.6C50.9,158.2,48.7,158.2,46.4,158.2z M54.6,103.6l-0.7,34.3c0,4.6,1.6,7.9,4.8,9.9c3.2,2,8.5,2.9,16.1,2.9
		c7.3,0,13.1-2,17.3-6.1c4.2-4.1,6.3-9.6,6.3-16.6c0-13.6-8.2-21.8-24.7-24.7L54.6,103.6z M55,93.8c3.5,0.2,6.5,0.5,9,0.7
		c2.4,0.2,4.7,0.4,6.8,0.5c2.1,0.1,3.5,0.2,4.2,0.2c3.4-1.3,6.3-2.8,8.6-4.5c2.3-1.6,4.3-4,6-7.1c1.7-3.1,2.6-7.1,2.6-12
		c0-7.9-2.6-13.8-7.9-17.5c-5.3-3.7-13.4-5.6-24.4-5.6c-1.2,0-2,0.3-2.5,0.8c-0.4,0.5-0.7,1.7-0.8,3.4c-0.2,3.9-0.5,8.1-0.6,12.6
		c-0.2,4.5-0.4,9-0.5,13.7C55.2,83.8,55.1,88.7,55,93.8z"/>
	<path class="st0" d="M184.1,160.4c-12.8,0-22.7-3.5-29.7-10.5c-7-7-10.4-17-10.4-30V59.2c0-3.9-0.4-6.5-1.3-7.9
		c-0.9-1.3-2.7-2-5.5-2c-1.1,0-3.2,0.1-6.2,0.4l-0.4-0.7l1.3-8.1c5,0.2,9.1,0.4,12.4,0.5c3.2,0.1,6,0.1,8.3,0.1c2,0,4.1-0.1,6.3-0.3
		c2.3-0.2,4.4-0.4,6.3-0.5c2-0.2,4.2-0.5,6.6-0.8l-0.7,8.2c-4.5,0.6-7.5,1.6-9.1,3c-1.5,1.4-2.4,3.9-2.7,7.4l-1.5,53.9
		c0,12.1,2.6,21.4,7.9,27.8c5.3,6.5,12.8,9.7,22.7,9.7c10,0,17.6-2.7,22.9-8c5.3-5.3,7.9-13,7.9-23c0-2.6,0-6.2-0.1-11
		c-0.1-4.8-0.2-9.9-0.3-15.5c-0.1-5.6-0.2-10.9-0.4-15.9c-0.1-5.1-0.2-10.8-0.4-17.3c-0.2-4.3-0.8-7-1.6-8.2
		c-0.8-1.2-2.5-1.7-5.2-1.7c-1.1,0-3.7,0.1-7.9,0.4l-0.4-0.7l1.3-8.1c2.9,0.1,5.5,0.2,7.7,0.3c2.2,0.1,4.5,0.1,6.9,0.2
		c2.4,0.1,4.4,0.1,6.1,0.1c2.7,0,5.4-0.1,8.1-0.4c2.7-0.2,5.9-0.7,9.7-1.3l-0.7,8.2c-5.3,0.7-8.7,1.7-10.3,2.9
		c-1.6,1.2-2.4,3.7-2.4,7.5V120c0,12.8-4,22.8-11.9,29.8C209.7,156.8,198.5,160.4,184.1,160.4z"/>
	<path class="st0" d="M276.5,151.9c4.4-0.9,7.6-2,9.6-3.3c2-1.3,3.3-3.3,3.8-5.9c0.5-2.6,0.8-6.1,0.8-10.6v-8.1c0-3.5-0.3-6.8-1-9.7
		c-0.7-2.9-2.1-6.6-4.3-11L269,69.8c-2.4-5-4.5-9-6.1-11.9c-1.6-2.9-3.7-5.1-6.1-6.5c-2.4-1.4-6-2.3-10.8-2.7l-0.4-0.7l1.1-7.1
		c2.6,0.1,4.9,0.2,6.9,0.3c2,0.1,4.2,0.1,6.6,0.2c2.4,0.1,4.6,0.1,6.7,0.1c2.6,0,5.3-0.1,8.3-0.2c3-0.1,5.8-0.3,8.5-0.5
		c2.7-0.2,5.7-0.5,9.2-0.7l0.5,1.3l-0.5,6.4c-5.5,0.5-9.2,1.2-11.1,2.1c-1.9,0.9-2.8,2.4-2.8,4.5c0,1.1,0.7,3.4,2,6.9
		c1.3,3.5,3.1,7.5,5.1,12c2.1,4.5,4.1,8.9,6.1,13.3c2,4.3,4.4,9.4,7.2,15.1h0.9l20.9-38.8c2-3.5,2.9-6.6,2.9-9.2
		c0-1.6-0.9-2.8-2.8-3.8c-1.9-0.9-4.8-1.5-8.7-1.7l-0.4-0.7l1.1-7.1c4.9,0.4,8.9,0.7,12.2,0.9c3.2,0.2,6,0.4,8.2,0.4
		c2.4,0,4.9-0.1,7.5-0.2c2.6-0.1,5.7-0.3,9.3-0.5l0.7,1.3l-1.1,6.8c-4.2,0.7-7.4,1.9-9.7,3.4c-2.3,1.5-4.5,3.8-6.4,7
		c-2,3.1-4.6,7.6-7.9,13.5l-18.3,32.2c-1.2,2.2-2.1,4.6-2.7,7.1c-0.5,2.5-0.9,5.7-1,9.7c-0.1,4-0.2,9.3-0.4,16
		c-0.1,4.6,0.4,7.9,1.6,9.7c1.2,1.8,3.3,2.7,6.5,2.7c1.8,0,4.8-0.2,9-0.5l0.4,0.7l-1.6,8.4c-3.3-0.1-6.2-0.2-8.6-0.3
		c-2.4-0.1-5-0.1-7.6-0.2c-2.6-0.1-5-0.1-7.1-0.1c-2.3,0-4.7,0.1-7.1,0.4c-2.4,0.2-4.7,0.5-6.8,0.7c-2.1,0.2-4.4,0.6-7,1.1
		L276.5,151.9z"/>
	<path class="st0" d="M406.7,158.9l1.5-7.9c5.7-0.5,9.9-1.3,12.5-2.3c2.6-1,4.2-3.1,4.9-6c0.7-3,1-7.7,1-14.2V48.6
		c-7.1,0.2-12.7,0.6-16.8,1c-4.1,0.4-7.1,1.3-9.1,2.7c-2,1.4-3.4,3.6-4.2,6.7c-0.9,3.1-1.6,7.3-2.4,12.6l-8.6,0.7
		c0.5-3.5,0.9-7.2,1.3-11c0.4-3.8,0.7-7.5,0.9-11.1c0.2-3.6,0.4-6.8,0.5-9.6l1.6-1.5l15.2,2h56.8l15.6-2l1.6,1.5
		c0.1,2.8,0.3,6,0.5,9.6c0.2,3.6,0.6,7.2,1,10.9c0.4,3.7,0.8,7.1,1.2,10.4l-8.6,0.7c-0.9-5.5-1.7-9.8-2.7-12.9s-2.3-5.4-4.2-6.8
		c-1.9-1.4-4.7-2.4-8.5-2.8c-3.8-0.5-9-0.9-15.6-1.3c-0.4,3.7-0.7,8.9-1.1,15.8c-0.4,6.8-0.7,14.5-0.9,23
		c-0.2,8.5-0.5,17.1-0.6,25.9s-0.3,16.9-0.3,24.4c0,4.5,0.8,7.7,2.4,9.6c1.6,1.9,4.3,2.8,8.1,2.8c3.7,0,7-0.2,10.1-0.5l0.5,0.7
		l-1.6,8.4c-2.6-0.1-5.6-0.2-9-0.3c-3.4-0.1-6.8-0.1-10-0.2c-3.2-0.1-5.9-0.1-8-0.1c-2,0-4.4,0-7.4,0.1c-3,0.1-6,0.2-9.2,0.3
		C412.1,158.6,409.3,158.8,406.7,158.9z"/>
	<path class="st0" d="M494.1,160.4l1.1-8.4c5.7-1.1,9.6-2.7,11.6-4.9c2-2.1,3-5.8,3-10.9l0.2-76.9c0-3.9-0.5-6.5-1.4-7.9
		c-0.9-1.3-2.7-2-5.4-2c-0.9,0-2,0-3.6,0.1c-1.5,0.1-2.9,0.2-4.1,0.3l-0.4-0.7l1.3-8.1c3.2,0.1,6.9,0.2,11.3,0.4
		c4.3,0.1,7.8,0.2,10.5,0.2c2.6,0,5.8-0.2,9.8-0.5c4-0.3,7.7-0.7,11.3-1.2l-0.7,8.2c-5,0.6-8.4,1.6-10.2,3c-1.8,1.4-2.8,3.9-3,7.4
		c-0.4,6.7-0.7,13.9-1,21.4c-0.3,7.6-0.6,15.1-0.8,22.4c-0.2,7.4-0.4,14.2-0.5,20.3c-0.1,6.2-0.2,11.1-0.2,14.9
		c0,4.9,0.5,8.2,1.6,9.9c1.1,1.7,3.2,2.6,6.4,2.6c1.7,0,3.5-0.1,5.3-0.2c1.8-0.1,3.3-0.2,4.4-0.4l0.4,0.7l-1.6,8.4
		c-2.2-0.1-4.8-0.2-7.7-0.3c-2.9-0.1-5.9-0.1-8.8-0.2c-2.9-0.1-5.4-0.1-7.5-0.1c-2.7,0-6,0.2-10,0.6
		C501.4,159.2,497.7,159.7,494.1,160.4z"/>
	<path class="st0" d="M612.1,160.4c-11.1,0-20.8-2.3-28.9-7c-8.2-4.6-14.5-11.2-19.1-19.7c-4.5-8.5-6.8-18.5-6.8-30
		c0-9.3,1.6-17.9,4.8-25.7c3.2-7.9,7.6-14.7,13.4-20.5c5.7-5.8,12.5-10.3,20.2-13.5c7.8-3.2,16.3-4.8,25.6-4.8
		c3.8,0,7.6,0.2,11.4,0.6c3.8,0.4,7.2,0.9,10.3,1.6c3.1,0.6,6.5,1.3,10.3,2.2l0.7,1.1c-1.2,5.5-2.2,10.6-2.9,15.2
		c-0.7,4.6-1.3,9.8-1.6,15.4l-8.8,0.7c0.4-4,0.5-7,0.5-9c0-5.7-2.2-10-6.7-12.8c-4.5-2.8-11.2-4.2-20.2-4.2c-8.2,0-15.3,2-21.3,5.9
		c-6,3.9-10.7,9.4-14,16.5c-3.3,7.1-4.9,15.5-4.9,25.3c0,10.7,1.7,20.1,5.2,28.1c3.5,8,8.4,14.2,14.7,18.7
		c6.3,4.5,13.6,6.7,22.1,6.7c8.3,0,15-2.4,20.1-7.1c5.1-4.7,8.8-12,11.1-21.9l8.8-0.7c-0.7,3.7-1.4,7-1.9,10c-0.5,3-1.1,6.2-1.6,9.7
		c-0.5,3.5-1,6.9-1.4,10.2l-1.1,1.6c-6.5,2.4-12.5,4.3-18.1,5.5C625.9,159.7,619.4,160.4,612.1,160.4z"/>
	<path class="st0" d="M690.9,59.2c0-3.9-0.4-6.5-1.3-7.9c-0.9-1.3-2.7-2-5.5-2c-1.1,0-3.2,0.1-6.2,0.4l-0.4-0.7l1.3-8.1
		c2.8,0.1,5.3,0.2,7.5,0.3c2.2,0.1,4.5,0.1,6.8,0.2c2.3,0.1,4.3,0.1,6,0.1c2,0,4.1-0.1,6.3-0.3c2.3-0.2,4.4-0.4,6.4-0.5
		s4.3-0.5,6.9-0.8L718,48c-4.5,0.7-7.6,1.9-9.3,3.4c-1.7,1.5-2.6,4.1-2.7,7.6l-2.2,78.6c-0.1,4.9,0.4,8.2,1.6,9.9
		c1.2,1.7,3.3,2.6,6.5,2.6c1.8,0,4.6-0.2,8.2-0.5l0.4,0.7l-1.6,8.4c-3.1-0.1-5.8-0.2-8.2-0.3c-2.4-0.1-4.9-0.1-7.4-0.2
		c-2.5-0.1-4.8-0.1-6.9-0.1c-2.3,0-4.7,0-7.1,0c-2.4,0-4.7,0-6.9,0.1c-2.1,0.1-4.5,0.1-7.1,0.1l1.8-8.2c5.7-0.6,9.5-1.8,11.2-3.5
		c1.7-1.7,2.6-5.2,2.6-10.4L690.9,59.2z M709.2,97.9L742,63.8c3.8-3.8,5.7-7,5.7-9.5c0-1.6-0.9-2.8-2.8-3.8
		c-1.9-0.9-4.8-1.5-8.7-1.7l-0.4-0.7l1.3-7.9c2.8,0.2,5.3,0.5,7.5,0.6c2.2,0.2,4.4,0.3,6.7,0.5c2.3,0.1,4.2,0.2,6,0.2
		c1.8,0,3.7,0,5.7-0.1c2-0.1,3.8-0.2,5.5-0.3c1.7-0.1,3.6-0.2,5.7-0.4l0.7,1.3l-1.3,7.5c-2.1,0.4-4,1-5.9,2c-1.8,1-3.9,2.5-6.2,4.6
		c-2.3,2.1-5.3,5-9,8.8l-29.5,31l30.8,40.1c4.4,5.6,8.3,9.6,11.8,12c3.5,2.4,7.4,3.6,11.6,3.6l0.7,0.7l-1.1,6.2
		c-2.7,0.5-5,0.9-6.9,1.1c-1.9,0.2-3.6,0.5-5.2,0.7c-1.6,0.2-2.6,0.4-3.1,0.4c-3.1,0-6.4-1.4-9.9-4.2c-3.5-2.8-7.1-6.7-10.6-11.5
		L709,100.4L709.2,97.9z"/>
	<path class="st0" d="M790.4,160l1.1-8.4c5.5-0.7,9.3-2.2,11.3-4.3c2-2.1,3-5.8,3-11.1l0.2-76.9c0-3.9-0.4-6.5-1.3-7.9
		c-0.9-1.3-2.7-2-5.5-2c-0.7,0-1.7,0-2.9,0.1c-1.2,0.1-2.3,0.2-3.3,0.3l-0.4-0.7l1.3-8.1c2.1,0,4.6,0.1,7.5,0.2
		c2.9,0.1,6,0.2,9.2,0.3c3.2,0.1,6.1,0.1,8.8,0.1c9.8,0,18-0.1,24.6-0.2c6.7-0.1,12.4-0.4,17.1-0.7c4.8-0.4,9.2-0.8,13.2-1.3
		l0.5,1.1c-0.6,2.9-1.2,6.2-1.8,9.8c-0.6,3.6-1.1,7.2-1.5,10.7c-0.4,3.5-0.7,6.8-0.9,9.9l-8.8,0.7c0.1-1.1,0.2-2.5,0.3-4.1
		c0.1-1.6,0.1-2.9,0.1-3.8c0-2.9-0.3-5.3-0.8-7.1c-0.5-1.8-1.7-3.1-3.5-3.9c-1.8-0.9-4.6-1.4-8.3-1.6c-3.8-0.2-8.9-0.4-15.4-0.4
		c-3.9,0-6.8,0.1-8.6,0.4c-1.8,0.2-3,0.9-3.4,1.8c-0.4,1-0.7,2.6-0.8,4.9l-1.8,42.7l-0.7,38.5c0,3.3,0.3,5.7,0.9,7.2
		c0.6,1.5,1.9,2.5,3.9,3c2,0.5,5.2,0.7,9.6,0.7c7.2,0,13-0.2,17.4-0.7c4.4-0.5,7.8-1.5,10.1-2.9c2.3-1.5,4-3.7,5.1-6.7
		c1.1-3,2-7,2.7-12l8.1-0.9l0.5,0.9c-0.9,3.8-1.7,8.6-2.7,14.5s-1.7,11.3-2.3,16.3l-0.9,1.1c-7.3-0.2-14.6-0.5-21.9-0.6
		c-7.3-0.2-13.8-0.3-19.7-0.5c-5.9-0.1-10.5-0.2-13.9-0.2c-3.8,0-8.1,0.2-12.9,0.5C798.1,158.9,793.9,159.4,790.4,160z M816.9,104.3
		l1.6-11c0.9,0,2.5,0,4.9,0c2.4,0,5.1,0,7.9,0.1c2.8,0.1,5.3,0.1,7.3,0.1c2.1,0,5.3-0.2,9.6-0.6c4.3-0.4,8.6-0.9,12.7-1.4l0.7,0.9
		l-2.6,10.8c-3.4-0.1-7.7-0.2-12.7-0.4c-5.1-0.1-9.4-0.2-12.9-0.2c-2.3,0-5,0.2-8.2,0.5C822.3,103.4,819.5,103.8,816.9,104.3z"/>
	<path class="st0" d="M910.9,158.9l1.5-7.9c5.7-0.5,9.9-1.3,12.5-2.3c2.6-1,4.2-3.1,4.9-6c0.7-3,1-7.7,1-14.2V48.6
		c-7.1,0.2-12.7,0.6-16.8,1c-4.1,0.4-7.1,1.3-9.1,2.7c-2,1.4-3.4,3.6-4.2,6.7c-0.9,3.1-1.6,7.3-2.4,12.6l-8.6,0.7
		c0.5-3.5,0.9-7.2,1.3-11c0.4-3.8,0.7-7.5,0.9-11.1c0.2-3.6,0.4-6.8,0.5-9.6l1.6-1.5l15.2,2h56.8l15.6-2l1.6,1.5
		c0.1,2.8,0.3,6,0.5,9.6c0.2,3.6,0.6,7.2,1,10.9c0.4,3.7,0.8,7.1,1.2,10.4l-8.6,0.7c-0.9-5.5-1.7-9.8-2.7-12.9s-2.3-5.4-4.2-6.8
		c-1.9-1.4-4.7-2.4-8.5-2.8c-3.8-0.5-9-0.9-15.6-1.3c-0.4,3.7-0.7,8.9-1.1,15.8c-0.4,6.8-0.7,14.5-0.9,23
		c-0.2,8.5-0.5,17.1-0.6,25.9c-0.2,8.8-0.3,16.9-0.3,24.4c0,4.5,0.8,7.7,2.4,9.6c1.6,1.9,4.3,2.8,8.1,2.8c3.7,0,7-0.2,10.1-0.5
		l0.5,0.7l-1.6,8.4c-2.6-0.1-5.6-0.2-9-0.3c-3.4-0.1-6.8-0.1-10-0.2c-3.2-0.1-5.9-0.1-8-0.1c-2,0-4.4,0-7.4,0.1
		c-3,0.1-6,0.2-9.2,0.3C916.3,158.6,913.5,158.8,910.9,158.9z"/>
	<path class="st0" d="M1028.2,160.4c-5.7,0-10.8-0.5-15.1-1.6c-4.3-1-8.9-2.6-13.6-4.7l-0.9-1.8c0.5-3.3,0.9-6.4,1.1-9.3
		c0.2-2.9,0.5-6.3,0.7-10.2c0.2-3.9,0.4-8.1,0.4-12.5l8.2-0.9c0,8.8,0.6,15.5,1.8,20.1c1.2,4.6,3.5,7.7,7,9.3
		c3.4,1.6,8.4,2.5,15,2.5c7.6,0,13.7-1.8,18.4-5.4c4.7-3.6,7.1-8.5,7.1-14.7c0-4-1.3-7.5-4-10.4c-2.7-2.9-6.1-5.6-10.4-8.1
		c-4.2-2.4-8.7-4.9-13.5-7.3c-4.9-2.6-9.6-5.3-14.2-8.2c-4.6-2.9-8.3-6.3-11.3-10.2c-2.9-3.8-4.4-8.4-4.4-13.6
		c0-6.5,1.9-12.3,5.6-17.4c3.7-5.1,8.8-9.2,15.1-12.2c6.3-3,13.5-4.5,21.4-4.5c5.5,0,10.4,0.4,14.6,1.1s8.7,1.9,13.5,3.5l0.5,1.1
		c-1.1,5.6-2,10.8-2.6,15.5c-0.6,4.7-1.1,9.9-1.5,15.5l-7.1,0.7l-1.1-0.9c0.4-3.5,0.5-6.7,0.5-9.5c0-6.5-1.6-10.9-4.7-13.4
		c-3.1-2.4-8.8-3.7-17.1-3.7c-6.7,0-12.2,1.7-16.6,5c-4.3,3.4-6.5,7.5-6.5,12.6c0,3.7,1.2,6.9,3.5,9.8c2.3,2.9,5.4,5.5,9.2,7.8
		c3.8,2.3,7.9,4.6,12.3,7c5.4,2.7,10.7,5.6,15.8,8.6c5.2,3.1,9.5,6.5,12.9,10.4c3.4,3.9,5.1,8.7,5.1,14.3c0,7-1.9,13.1-5.8,18.5
		c-3.8,5.4-9.2,9.6-15.9,12.6C1044.9,158.8,1037.1,160.4,1028.2,160.4z"/>
</g>
</svg>
