<?xml version="1.0" encoding="utf-8"?>
<!-- Generator: Adobe Illustrator 24.1.2, SVG Export Plug-In . SVG Version: 6.00 Build 0)  -->
<svg version="1.1" id="Capa_1" xmlns="http://www.w3.org/2000/svg" xmlns:xlink="http://www.w3.org/1999/xlink" x="0px" y="0px"
	 viewBox="0 0 1300 200" style="enable-background:new 0 0 1300 200;" xml:space="preserve">
<style type="text/css">
	.st0{fill:#FFFFFF;}
</style>
<g>
	<path class="st0" d="M95.5,160.4c-11.1,0-20.8-2.3-28.9-7c-8.2-4.6-14.5-11.2-19.1-19.7c-4.5-8.5-6.8-18.5-6.8-30
		c0-9.3,1.6-17.9,4.8-25.7c3.2-7.9,7.6-14.7,13.4-20.5c5.7-5.8,12.5-10.3,20.2-13.5c7.8-3.2,16.3-4.8,25.6-4.8
		c3.8,0,7.6,0.2,11.4,0.6c3.8,0.4,7.2,0.9,10.3,1.6c3.1,0.6,6.5,1.3,10.3,2.2l0.7,1.1c-1.2,5.5-2.2,10.6-2.9,15.2
		c-0.7,4.6-1.3,9.8-1.6,15.4l-8.8,0.7c0.4-4,0.5-7,0.5-9c0-5.7-2.2-10-6.7-12.8c-4.5-2.8-11.2-4.2-20.2-4.2c-8.2,0-15.3,2-21.3,5.9
		c-6,3.9-10.7,9.4-14,16.5c-3.3,7.1-4.9,15.5-4.9,25.3c0,10.7,1.7,20.1,5.2,28.1c3.5,8,8.4,14.2,14.7,18.7
		c6.3,4.5,13.6,6.7,22.1,6.7c8.3,0,15-2.4,20.1-7.1c5.1-4.7,8.8-12,11.1-21.9l8.8-0.7c-0.7,3.7-1.4,7-1.9,10c-0.5,3-1.1,6.2-1.6,9.7
		s-1,6.9-1.4,10.2l-1.1,1.6c-6.5,2.4-12.5,4.3-18.1,5.5C109.3,159.7,102.8,160.4,95.5,160.4z"/>
	<path class="st0" d="M204,160.4c-10,0-18.8-2.4-26.5-7.1c-7.6-4.8-13.6-11.4-17.9-20c-4.3-8.5-6.4-18.4-6.4-29.5
		c0-9,1.5-17.5,4.6-25.3c3.1-7.8,7.3-14.7,12.8-20.5c5.5-5.9,11.9-10.4,19.2-13.7c7.3-3.3,15.2-4.9,23.6-4.9c10.3,0,19.3,2.4,27,7.1
		c7.8,4.8,13.8,11.4,18.2,19.9c4.4,8.5,6.6,18.3,6.6,29.4c0,9.2-1.6,17.7-4.7,25.5c-3.1,7.8-7.5,14.7-13,20.5
		c-5.6,5.9-12.1,10.4-19.5,13.7C220.7,158.7,212.6,160.4,204,160.4z M209.7,151c7.8,0,14.7-2,20.5-6c5.9-4,10.5-9.6,13.8-16.8
		c3.4-7.1,5-15.4,5-24.8c0-10.5-1.8-19.7-5.3-27.7c-3.5-7.9-8.4-14.2-14.7-18.7c-6.2-4.5-13.5-6.8-21.8-6.8c-7.6,0-14.2,2-20,6
		c-5.7,4-10.2,9.6-13.5,16.8c-3.2,7.1-4.9,15.4-4.9,24.8c0,10.4,1.7,19.6,5.1,27.6c3.4,8,8.2,14.3,14.4,18.8
		C194.7,148.8,201.7,151,209.7,151z"/>
	<path class="st0" d="M345.4,161.6c-3.9-11-7.8-22-11.7-33c-3.9-11-7.8-22-11.7-32.9c-3.9-10.9-7.8-21.9-11.7-32.9h-0.9
		c-0.6,7.5-1.2,14.1-1.6,20.1c-0.5,5.9-1,12.2-1.6,19c-0.6,6.7-1.2,13.2-1.6,19.3c-0.5,6.2-0.9,11.4-1.2,15.6
		c-0.3,4.2-0.5,6.8-0.5,7.6c0,3.8,1.9,5.7,5.7,5.7c1,0,3.5-0.1,7.5-0.2l0.4,0.7l-1.6,8.2c-4.3-0.2-7.8-0.4-10.5-0.5
		c-2.7-0.1-5.2-0.2-7.2-0.2c-1.8,0-3.7,0.1-5.5,0.2c-1.8,0.1-3.5,0.3-5.1,0.5c-1.6,0.2-3.3,0.5-5.1,0.7l0.9-8.4
		c3.9-0.5,6.7-1.7,8.4-3.8c1.7-2,2.8-5.5,3.3-10.4c0.2-2.2,0.6-5.5,1.1-10c0.5-4.5,1-9.5,1.6-15.2c0.6-5.7,1.2-11.5,1.7-17.3
		c0.5-5.9,1.1-11.4,1.6-16.7c0.5-5.3,1-9.7,1.3-13.3c0.3-3.6,0.5-5.8,0.5-6.7c0-2.2-0.5-4-1.6-5.3c-1.1-1.3-2.8-2.4-5.1-3.2
		c-2.3-0.8-5.3-1.3-9-1.6l-0.5-0.9l1.5-6.4c5,0.2,9.1,0.5,12.3,0.6c3.2,0.2,5.7,0.3,7.7,0.3c1.8,0,3.7-0.1,5.6-0.2
		c1.9-0.1,4.2-0.3,6.9-0.5c4.2,13.3,8.1,25.5,11.8,36.6c3.7,11.1,7,20.7,9.9,28.8c2.9,8.1,6,16.6,9.3,25.5h0.9
		c3.3-8.9,6.4-17.4,9.3-25.6c2.9-8.1,6.3-17.7,10.1-28.7c3.8-11,7.9-23.1,12.3-36.3c0-0.1,0.8-0.1,2.3,0c1.5,0.1,3.2,0.2,5.1,0.3
		c1.9,0.1,3.5,0.1,4.7,0.1c1.8,0,4.3-0.1,7.5-0.3c3.2-0.2,7.3-0.5,12.3-0.8l0.4,0.7l-0.9,6.8c-5.3,0.6-9,1.7-11.2,3.2
		c-2.2,1.5-3.3,3.8-3.3,6.9c0,1.1,0.1,3.5,0.3,7.3c0.2,3.8,0.5,8.4,0.8,13.9s0.8,11.4,1.2,17.7c0.4,6.3,0.9,12.5,1.3,18.8
		c0.4,6.2,0.8,11.9,1.2,17c0.9,7.1,1.8,11.8,2.9,14c1.1,2.3,3.1,3.4,6,3.4c1.1,0,2.8-0.1,5.1-0.4l0.4,0.7l-1.6,8.2
		c-3.9-0.2-7.2-0.4-10-0.5c-2.7-0.1-5.2-0.1-7.4-0.1c-2,0-4,0.1-6.2,0.2c-2.2,0.1-4.3,0.3-6.2,0.5c-2,0.2-4.2,0.5-6.6,0.7l0.7-8.4
		c3.8-0.5,6.5-1.5,8.2-2.9c1.7-1.5,2.6-3.5,2.6-6.2c0-1.1-0.2-3.8-0.5-8c-0.3-4.2-0.7-9.3-1.2-15.3c-0.5-6-1-12.2-1.5-18.7
		c-0.5-6.5-1-12.5-1.5-18.1c-0.5-5.6-1-12-1.6-19.1h-0.9c-2.9,8.1-5.9,16.2-8.8,24.3c-2.9,8.1-5.9,16.3-8.9,24.5
		c-3,8.2-6,16.3-8.9,24.5c-2.9,8.1-5.9,16.2-8.8,24.3L345.4,161.6z"/>
	<path class="st0" d="M438.1,160.4l1.1-8.4c5.7-1.1,9.6-2.7,11.6-4.9c2-2.1,3-5.8,3-10.9l0.2-76.9c0-3.9-0.5-6.5-1.4-7.9
		c-0.9-1.3-2.7-2-5.4-2c-0.9,0-2,0-3.6,0.1c-1.5,0.1-2.9,0.2-4.1,0.3l-0.4-0.7l1.3-8.1c3.2,0.1,6.9,0.2,11.3,0.4
		c4.3,0.1,7.8,0.2,10.5,0.2c2.6,0,5.8-0.2,9.8-0.5c4-0.3,7.7-0.7,11.3-1.2l-0.7,8.2c-5,0.6-8.4,1.6-10.2,3c-1.8,1.4-2.8,3.9-3,7.4
		c-0.4,6.7-0.7,13.9-1,21.4c-0.3,7.6-0.6,15.1-0.8,22.4c-0.2,7.4-0.4,14.2-0.5,20.3c-0.1,6.2-0.2,11.1-0.2,14.9
		c0,4.9,0.5,8.2,1.6,9.9c1.1,1.7,3.2,2.6,6.4,2.6c1.7,0,3.5-0.1,5.3-0.2c1.8-0.1,3.3-0.2,4.4-0.4l0.4,0.7l-1.6,8.4
		c-2.2-0.1-4.8-0.2-7.7-0.3c-2.9-0.1-5.9-0.1-8.8-0.2c-2.9-0.1-5.4-0.1-7.5-0.1c-2.7,0-6,0.2-10,0.6
		C445.4,159.2,441.7,159.7,438.1,160.4z"/>
	<path class="st0" d="M598.4,165.5c-8.9-13.9-17.5-27-25.6-39.2c-8.2-12.2-15.5-22.9-21.8-32.2c-6.4-9.2-13.3-19.1-20.7-29.6h-0.9
		l-0.9,78.2c0,2.7,0.4,4.6,1.3,5.7c0.9,1.1,2.3,1.6,4.4,1.6c0.6,0,1.7,0,3.2-0.1c1.5-0.1,3.6-0.1,6.1-0.1l0.4,0.7l-1.6,8.2
		c-2.6-0.1-4.8-0.2-6.8-0.4c-2-0.1-4.1-0.2-6.3-0.3c-2.3-0.1-4.4-0.1-6.3-0.1c-2.4,0-5,0.1-7.6,0.4c-2.6,0.2-5.8,0.6-9.4,1.1
		l0.9-8.4c3.8-0.5,6.6-1.6,8.4-3.3c1.8-1.7,2.8-4.5,2.9-8.2l2.4-80.1c0-3.8-1.1-6.5-3.4-8.1c-2.3-1.6-6.4-2.7-12.5-3.3l-0.5-0.9
		l1.5-6.8c3.8,0.2,6.9,0.5,9.4,0.6c2.5,0.2,4.6,0.3,6.3,0.3c2.1,0,4-0.1,5.9-0.2c1.8-0.1,4-0.3,6.4-0.5c6.1,9.4,12.1,18.6,18,27.5
		c5.9,8.9,11.5,17.2,16.8,24.9c5.3,7.7,9.9,14.4,13.9,20.2c4,5.7,8.3,11.8,12.8,18.3h0.9V57.4c0-2.7-0.5-4.7-1.5-6
		c-1-1.3-2.5-1.9-4.6-1.9c-1.6,0-3.9,0.1-7,0.2l-0.4-0.7l1.6-8.2c2.4,0.1,4.6,0.2,6.4,0.4c1.8,0.1,3.7,0.2,5.7,0.3
		c2,0.1,3.7,0.1,5.3,0.1c2.6,0,5.3-0.1,8.1-0.4c2.8-0.2,6.2-0.6,10.1-1.1l-0.9,8.4c-4.2,0.5-7.2,1.6-9.3,3.5c-2,1.8-3.1,4.5-3.2,8.1
		l-2.6,103L598.4,165.5z"/>
	<path class="st0" d="M686.6,160.4c-10.9,0-20.3-2.3-28.3-7c-8-4.6-14.2-11.2-18.6-19.7c-4.4-8.5-6.6-18.5-6.6-30
		c0-12.8,2.7-24.1,8.1-33.7c5.4-9.6,12.9-17.2,22.6-22.6c9.7-5.4,20.9-8.2,33.6-8.2c3.8,0,7.8,0.2,11.9,0.6c4.2,0.4,8,0.9,11.5,1.6
		c3.5,0.6,7.6,1.3,12.1,2.2l0.7,1.1c-1.2,5.5-2.2,10.6-3,15.2c-0.8,4.6-1.4,9.8-1.7,15.4l-8.6,0.7c0.4-4.2,0.5-7.4,0.5-9.9
		c0-5.7-2.2-9.9-6.5-12.4c-4.3-2.5-11.4-3.8-21.2-3.8c-9.3,0-17.2,1.9-23.8,5.6c-6.6,3.7-11.6,9.2-15.1,16.3
		c-3.5,7.1-5.2,15.8-5.2,25.9c0,10.7,1.7,20.1,5.2,28.1c3.5,8,8.3,14.2,14.6,18.6c6.2,4.4,13.6,6.6,22,6.6c4.9,0,9.2-0.6,13-1.7
		c3.8-1.2,7.8-2.9,12.1-5.2v-22.4c0-4.2-0.6-6.8-1.9-8.1c-1.3-1.2-4-1.8-8.2-1.8c-1.3,0-3,0-5,0s-4.6,0-7.6,0l-0.4-0.7l1.6-9.2
		c4.8,0.2,8.9,0.4,12.5,0.5c3.6,0.1,7.2,0.2,10.7,0.2c2.7,0,5.2-0.1,7.6-0.3c2.4-0.2,5.1-0.4,8.2-0.6l0.7,4
		c-1.5,1.2-2.6,2.9-3.4,4.9c-0.8,2.1-1.4,4.9-1.7,8.6c-0.4,3.7-0.5,8.6-0.5,14.7c0,3.2,0.1,6.3,0.4,9.3c0.2,3,0.5,5.3,0.9,6.9
		l-1.1,1.6c-7.6,2.8-14.5,4.9-20.9,6.3C701.5,159.6,694.4,160.4,686.6,160.4z"/>
	<path class="st0" d="M824.3,160.4c-5.7,0-10.8-0.5-15.1-1.6c-4.3-1-8.9-2.6-13.6-4.7l-0.9-1.8c0.5-3.3,0.9-6.4,1.1-9.3
		c0.2-2.9,0.5-6.3,0.7-10.2c0.2-3.9,0.4-8.1,0.4-12.5l8.2-0.9c0,8.8,0.6,15.5,1.8,20.1c1.2,4.6,3.5,7.7,7,9.3
		c3.4,1.6,8.4,2.5,15,2.5c7.6,0,13.7-1.8,18.4-5.4c4.7-3.6,7.1-8.5,7.1-14.7c0-4-1.3-7.5-4-10.4c-2.7-2.9-6.1-5.6-10.4-8.1
		c-4.2-2.4-8.7-4.9-13.5-7.3c-4.9-2.6-9.6-5.3-14.2-8.2c-4.6-2.9-8.3-6.3-11.3-10.2s-4.4-8.4-4.4-13.6c0-6.5,1.9-12.3,5.6-17.4
		c3.7-5.1,8.8-9.2,15.1-12.2c6.3-3,13.5-4.5,21.4-4.5c5.5,0,10.4,0.4,14.6,1.1s8.7,1.9,13.5,3.5l0.5,1.1c-1.1,5.6-2,10.8-2.6,15.5
		c-0.6,4.7-1.1,9.9-1.5,15.5l-7.1,0.7l-1.1-0.9c0.4-3.5,0.5-6.7,0.5-9.5c0-6.5-1.6-10.9-4.7-13.4c-3.1-2.4-8.8-3.7-17.1-3.7
		c-6.7,0-12.2,1.7-16.6,5c-4.3,3.4-6.5,7.5-6.5,12.6c0,3.7,1.2,6.9,3.5,9.8c2.3,2.9,5.4,5.5,9.2,7.8c3.8,2.3,7.9,4.6,12.3,7
		c5.4,2.7,10.7,5.6,15.8,8.6c5.2,3.1,9.5,6.5,12.9,10.4c3.4,3.9,5.1,8.7,5.1,14.3c0,7-1.9,13.1-5.8,18.5c-3.8,5.4-9.2,9.6-15.9,12.6
		C841.1,158.8,833.2,160.4,824.3,160.4z"/>
	<path class="st0" d="M939.4,160.4c-10,0-18.8-2.4-26.5-7.1c-7.6-4.8-13.6-11.4-17.9-20c-4.3-8.5-6.4-18.4-6.4-29.5
		c0-9,1.5-17.5,4.6-25.3c3.1-7.8,7.3-14.7,12.8-20.5c5.5-5.9,11.9-10.4,19.2-13.7c7.3-3.3,15.2-4.9,23.6-4.9c10.3,0,19.3,2.4,27,7.1
		c7.8,4.8,13.8,11.4,18.2,19.9c4.4,8.5,6.6,18.3,6.6,29.4c0,9.2-1.6,17.7-4.7,25.5c-3.1,7.8-7.5,14.7-13,20.5
		c-5.6,5.9-12.1,10.4-19.5,13.7C956.1,158.7,948.1,160.4,939.4,160.4z M945.1,151c7.8,0,14.7-2,20.5-6c5.9-4,10.5-9.6,13.8-16.8
		c3.4-7.1,5-15.4,5-24.8c0-10.5-1.8-19.7-5.3-27.7c-3.5-7.9-8.4-14.2-14.7-18.7c-6.2-4.5-13.5-6.8-21.8-6.8c-7.6,0-14.2,2-20,6
		c-5.7,4-10.2,9.6-13.5,16.8c-3.2,7.1-4.9,15.4-4.9,24.8c0,10.4,1.7,19.6,5.1,27.6c3.4,8,8.2,14.3,14.4,18.8
		C930.1,148.8,937.1,151,945.1,151z"/>
	<path class="st0" d="M1066.2,160.4c-10,0-18.8-2.4-26.5-7.1c-7.6-4.8-13.6-11.4-17.9-20c-4.3-8.5-6.4-18.4-6.4-29.5
		c0-9,1.5-17.5,4.6-25.3c3.1-7.8,7.3-14.7,12.8-20.5c5.5-5.9,11.9-10.4,19.2-13.7c7.3-3.3,15.2-4.9,23.6-4.9c10.3,0,19.3,2.4,27,7.1
		c7.8,4.8,13.8,11.4,18.2,19.9c4.4,8.5,6.6,18.3,6.6,29.4c0,9.2-1.6,17.7-4.7,25.5c-3.1,7.8-7.5,14.7-13,20.5
		c-5.6,5.9-12.1,10.4-19.5,13.7C1082.9,158.7,1074.8,160.4,1066.2,160.4z M1071.8,151c7.8,0,14.7-2,20.5-6c5.9-4,10.5-9.6,13.8-16.8
		c3.4-7.1,5-15.4,5-24.8c0-10.5-1.8-19.7-5.3-27.7c-3.5-7.9-8.4-14.2-14.7-18.7c-6.2-4.5-13.5-6.8-21.8-6.8c-7.6,0-14.2,2-20,6
		c-5.7,4-10.2,9.6-13.5,16.8c-3.2,7.1-4.9,15.4-4.9,24.8c0,10.4,1.7,19.6,5.1,27.6c3.4,8,8.2,14.3,14.4,18.8
		C1056.8,148.8,1063.9,151,1071.8,151z"/>
	<path class="st0" d="M1239.3,165.5c-8.9-13.9-17.5-27-25.7-39.2c-8.2-12.2-15.5-22.9-21.8-32.2c-6.4-9.2-13.3-19.1-20.7-29.6h-0.9
		l-0.9,78.2c0,2.7,0.4,4.6,1.3,5.7c0.9,1.1,2.3,1.6,4.4,1.6c0.6,0,1.7,0,3.2-0.1c1.5-0.1,3.6-0.1,6.1-0.1l0.4,0.7l-1.6,8.2
		c-2.6-0.1-4.8-0.2-6.8-0.4c-2-0.1-4.1-0.2-6.3-0.3c-2.3-0.1-4.4-0.1-6.3-0.1c-2.4,0-5,0.1-7.6,0.4c-2.6,0.2-5.8,0.6-9.4,1.1
		l0.9-8.4c3.8-0.5,6.6-1.6,8.4-3.3c1.8-1.7,2.8-4.5,2.9-8.2l2.4-80.1c0-3.8-1.1-6.5-3.4-8.1c-2.3-1.6-6.4-2.7-12.5-3.3l-0.5-0.9
		l1.5-6.8c3.8,0.2,6.9,0.5,9.4,0.6c2.5,0.2,4.6,0.3,6.3,0.3c2.1,0,4-0.1,5.9-0.2c1.8-0.1,4-0.3,6.4-0.5c6.1,9.4,12.1,18.6,18,27.5
		c5.9,8.9,11.5,17.2,16.8,24.9c5.3,7.7,9.9,14.4,13.9,20.2c4,5.7,8.3,11.8,12.8,18.3h0.9V57.4c0-2.7-0.5-4.7-1.5-6
		c-1-1.3-2.5-1.9-4.6-1.9c-1.6,0-3.9,0.1-7,0.2l-0.4-0.7l1.6-8.2c2.4,0.1,4.6,0.2,6.4,0.4c1.8,0.1,3.7,0.2,5.7,0.3
		c2,0.1,3.7,0.1,5.3,0.1c2.6,0,5.3-0.1,8.1-0.4c2.8-0.2,6.2-0.6,10.1-1.1l-0.9,8.4c-4.2,0.5-7.2,1.6-9.3,3.5c-2,1.8-3.1,4.5-3.2,8.1
		l-2.6,103L1239.3,165.5z"/>
</g>
</svg>
