<?xml version="1.0" encoding="utf-8"?>
<!-- Generator: Adobe Illustrator 24.1.2, SVG Export Plug-In . SVG Version: 6.00 Build 0)  -->
<svg version="1.1" id="Capa_1" xmlns="http://www.w3.org/2000/svg" xmlns:xlink="http://www.w3.org/1999/xlink" x="0px" y="0px"
	 viewBox="0 0 900 200" style="enable-background:new 0 0 900 200;" xml:space="preserve">
<style type="text/css">
	.st0{fill:#9E0B0F;}
</style>
<g>
	<g>
		<path class="st0" d="M72.8,161.1c-5.8,0-10.9-0.5-15.2-1.6c-4.4-1-9-2.6-13.8-4.7l-0.9-1.8c0.5-3.3,0.9-6.4,1.1-9.3
			c0.2-2.9,0.5-6.3,0.7-10.3c0.2-3.9,0.4-8.1,0.4-12.6l8.3-0.9c0,8.9,0.6,15.6,1.8,20.2c1.2,4.6,3.6,7.8,7,9.4
			c3.4,1.7,8.5,2.5,15.1,2.5c7.6,0,13.8-1.8,18.6-5.4c4.7-3.6,7.1-8.6,7.1-14.9c0-4.1-1.4-7.6-4.1-10.5c-2.7-3-6.2-5.7-10.4-8.1
			c-4.2-2.5-8.8-4.9-13.6-7.4c-4.9-2.6-9.7-5.4-14.3-8.3c-4.6-3-8.4-6.4-11.4-10.3c-3-3.9-4.4-8.5-4.4-13.8c0-6.5,1.9-12.4,5.6-17.6
			c3.8-5.2,8.8-9.3,15.2-12.3c6.4-3,13.6-4.5,21.6-4.5c5.5,0,10.4,0.4,14.7,1.1c4.2,0.7,8.8,1.9,13.6,3.5l0.6,1.1
			c-1.1,5.7-2,10.9-2.6,15.6c-0.6,4.7-1.1,9.9-1.5,15.6l-7.2,0.7l-1.1-0.9c0.4-3.6,0.6-6.8,0.6-9.6c0-6.5-1.6-11-4.7-13.5
			c-3.1-2.5-8.9-3.7-17.3-3.7c-6.8,0-12.3,1.7-16.7,5.1c-4.4,3.4-6.6,7.6-6.6,12.7c0,3.7,1.2,7,3.5,9.9c2.3,2.9,5.4,5.5,9.2,7.9
			c3.8,2.3,7.9,4.7,12.4,7c5.4,2.7,10.7,5.6,16,8.7c5.2,3.1,9.6,6.6,13,10.5c3.4,3.9,5.2,8.7,5.2,14.4c0,7-1.9,13.2-5.8,18.7
			c-3.9,5.4-9.2,9.7-16.1,12.7S81.8,161.1,72.8,161.1z"/>
		<path class="st0" d="M188.9,161.1c-10.1,0-19-2.4-26.7-7.2c-7.7-4.8-13.7-11.5-18-20.1c-4.3-8.6-6.5-18.5-6.5-29.7
			c0-9.1,1.5-17.6,4.6-25.5c3.1-7.9,7.4-14.8,12.9-20.7c5.5-5.9,12-10.5,19.4-13.9c7.4-3.3,15.3-5,23.8-5c10.3,0,19.4,2.4,27.2,7.2
			c7.8,4.8,13.9,11.5,18.4,20c4.4,8.6,6.7,18.4,6.7,29.7c0,9.2-1.6,17.8-4.7,25.7c-3.1,7.9-7.5,14.8-13.1,20.7
			c-5.6,5.9-12.2,10.5-19.7,13.9C205.7,159.4,197.6,161.1,188.9,161.1z M194.6,151.6c7.9,0,14.8-2,20.7-6.1
			c5.9-4.1,10.6-9.7,13.9-16.9c3.4-7.2,5.1-15.5,5.1-25c0-10.6-1.8-19.9-5.4-27.9c-3.6-8-8.5-14.3-14.8-18.8
			c-6.3-4.6-13.6-6.8-22-6.8c-7.6,0-14.3,2-20.1,6.1c-5.8,4.1-10.3,9.7-13.6,16.9c-3.3,7.2-4.9,15.6-4.9,25
			c0,10.5,1.7,19.7,5.2,27.8c3.4,8.1,8.3,14.4,14.5,18.9C179.5,149.4,186.6,151.6,194.6,151.6z"/>
		<path class="st0" d="M271.8,152.2c4.8-0.7,8.1-2.2,9.9-4.3c1.8-2.2,2.7-5.9,2.7-11.2l0.2-77.6c0-3.9-0.4-6.6-1.3-7.9
			c-0.9-1.4-2.7-2-5.5-2c-1.1,0-3.2,0.1-6.3,0.4l-0.4-0.7l1.3-8.1c4.9,0.2,9,0.4,12.3,0.5c3.3,0.1,6.1,0.1,8.4,0.1
			c2,0,4.1-0.1,6.4-0.3c2.3-0.2,4.4-0.4,6.5-0.6s4.3-0.5,6.9-0.8l-0.7,8.3c-4.1,0.5-6.9,1.3-8.5,2.4c-1.6,1.1-2.5,2.8-2.8,5.1
			c-0.2,2.3-0.6,5.5-0.9,9.7c-0.5,7.6-0.9,15.9-1.3,24.8c-0.4,8.9-0.6,17.5-0.7,25.7c-0.1,8.2-0.2,15.1-0.2,20.8
			c0,4.2,0.3,7.3,1,9.3c0.7,2,2.2,3.4,4.4,4c2.3,0.6,5.7,0.9,10.3,0.9c5.4,0,9.8-0.3,13.1-0.9c3.3-0.6,6-1.8,8-3.7
			c2-1.8,3.7-4.5,4.9-7.9c1.2-3.4,2.3-8,3.3-13.7l8.1-0.9l0.6,0.9c-1.2,6.7-2.2,12.6-3,17.9c-0.8,5.3-1.6,11-2.3,17.2l-0.9,1.1
			c-6.9-0.4-13-0.6-18.3-0.8c-5.3-0.2-10.7-0.4-16.3-0.6c-5.6-0.2-10.6-0.3-15.1-0.3c-4.6,0-8.7,0.2-12.5,0.5
			c-3.8,0.3-7.9,0.8-12.3,1.4L271.8,152.2z"/>
		<path class="st0" d="M406.7,161.1c-3.7-0.5-7-0.9-9.8-1.1c-2.8-0.2-5.8-0.5-8.8-0.7c-3-0.2-5.7-0.4-8-0.4c-3.1,0-6.3,0.2-9.5,0.6
			c-3.3,0.4-7.2,0.9-11.7,1.7l1.1-8.5c5.8-1.1,9.6-2.7,11.5-4.9c1.9-2.2,2.9-5.8,2.9-11l0.2-77.6c0-3.9-0.4-6.6-1.3-7.9
			c-0.9-1.4-2.7-2-5.5-2c-1.1,0-3.2,0.1-6.3,0.4l-0.4-0.7l1.3-8.1c2.7,0.1,5.1,0.2,7.1,0.3c2,0.1,4.2,0.1,6.4,0.2
			c2.2,0.1,4.2,0.1,5.9,0.1c2.1,0,4.7,0,7.9-0.1c3.1-0.1,6.2-0.2,9.3-0.3c3.1-0.1,6.7-0.2,10.9-0.4c12.1,0,22.7,2.3,31.8,6.9
			c9.1,4.6,16.2,11.1,21.3,19.4c5.1,8.3,7.7,18,7.7,28.9c0,9.2-1.6,17.8-4.9,25.7c-3.3,7.9-7.8,14.8-13.7,20.8
			c-5.9,6-12.6,10.6-20.3,13.9C424,159.4,415.6,161.1,406.7,161.1z M397.1,49.5c-2.6,0-4.3,0.2-5.2,0.7c-0.9,0.5-1.4,1.6-1.5,3.3
			c-0.9,21.3-1.5,39.1-2,53.4c-0.5,14.3-0.7,23.5-0.7,27.7c0,4.4,0.6,7.9,1.9,10.3c1.3,2.5,3.6,4.2,7,5.2c3.4,1,8.2,1.5,14.3,1.5
			c13.3,0,23.8-4.6,31.4-13.8c7.6-9.2,11.5-21.8,11.5-37.8c0-10.8-2.2-20-6.6-27.5c-4.4-7.5-10.8-13.2-19.2-17.2
			C419.6,51.4,409.2,49.5,397.1,49.5z"/>
		<path class="st0" d="M573.1,161.1c-10.1,0-19-2.4-26.7-7.2c-7.7-4.8-13.7-11.5-18-20.1c-4.3-8.6-6.5-18.5-6.5-29.7
			c0-9.1,1.5-17.6,4.6-25.5c3.1-7.9,7.4-14.8,12.9-20.7c5.5-5.9,12-10.5,19.4-13.9c7.4-3.3,15.3-5,23.8-5c10.3,0,19.4,2.4,27.2,7.2
			c7.8,4.8,13.9,11.5,18.4,20c4.4,8.6,6.7,18.4,6.7,29.7c0,9.2-1.6,17.8-4.7,25.7c-3.1,7.9-7.5,14.8-13.1,20.7
			c-5.6,5.9-12.2,10.5-19.7,13.9C590,159.4,581.9,161.1,573.1,161.1z M578.8,151.6c7.9,0,14.8-2,20.7-6.1
			c5.9-4.1,10.6-9.7,13.9-16.9c3.4-7.2,5.1-15.5,5.1-25c0-10.6-1.8-19.9-5.4-27.9c-3.6-8-8.5-14.3-14.8-18.8
			c-6.3-4.6-13.6-6.8-22-6.8c-7.6,0-14.3,2-20.1,6.1c-5.8,4.1-10.3,9.7-13.6,16.9c-3.3,7.2-4.9,15.6-4.9,25
			c0,10.5,1.7,19.7,5.2,27.8c3.4,8.1,8.3,14.4,14.5,18.9C563.7,149.4,570.8,151.6,578.8,151.6z"/>
		<path class="st0" d="M702.8,161.1c-12.9,0-22.9-3.5-29.9-10.6c-7-7.1-10.5-17.1-10.5-30.2V59.1c0-3.9-0.4-6.6-1.3-7.9
			c-0.9-1.4-2.7-2-5.5-2c-1.1,0-3.2,0.1-6.3,0.4l-0.4-0.7l1.3-8.1c5,0.2,9.2,0.4,12.5,0.5c3.3,0.1,6.1,0.1,8.4,0.1
			c2,0,4.1-0.1,6.4-0.3c2.3-0.2,4.4-0.4,6.4-0.6c2-0.2,4.2-0.5,6.7-0.8l-0.7,8.3c-4.6,0.6-7.6,1.6-9.1,3c-1.5,1.4-2.4,3.9-2.7,7.5
			l-1.5,54.3c0,12.2,2.6,21.6,7.9,28.1c5.3,6.5,12.9,9.8,22.9,9.8c10.1,0,17.8-2.7,23.1-8c5.3-5.4,7.9-13.1,7.9-23.2
			c0-2.6,0-6.3-0.1-11.1c-0.1-4.8-0.2-10-0.3-15.6c-0.1-5.6-0.2-11-0.4-16.1c-0.1-5.1-0.2-10.9-0.4-17.5c-0.2-4.3-0.8-7-1.6-8.2
			c-0.8-1.2-2.6-1.8-5.3-1.8c-1.1,0-3.8,0.1-7.9,0.4l-0.4-0.7l1.3-8.1c3,0.1,5.5,0.2,7.8,0.3c2.2,0.1,4.5,0.1,6.9,0.2
			c2.4,0.1,4.5,0.1,6.2,0.1c2.7,0,5.4-0.1,8.1-0.4c2.7-0.2,6-0.7,9.8-1.3l-0.7,8.3c-5.3,0.7-8.7,1.7-10.3,3
			c-1.6,1.2-2.4,3.8-2.4,7.6v62.1c0,12.9-4,22.9-12,30C728.6,157.5,717.3,161.1,702.8,161.1z"/>
		<path class="st0" d="M791.3,159.6l1.5-7.9c5.8-0.5,10-1.3,12.6-2.3c2.6-1,4.2-3.1,4.9-6.1c0.7-3,1-7.8,1-14.3V48.4
			c-7.1,0.2-12.8,0.6-16.9,1c-4.1,0.4-7.2,1.4-9.1,2.8c-2,1.4-3.4,3.7-4.2,6.7c-0.9,3.1-1.7,7.3-2.4,12.7l-8.7,0.7
			c0.5-3.6,0.9-7.3,1.3-11.1c0.4-3.8,0.7-7.5,0.9-11.2c0.2-3.6,0.4-6.9,0.6-9.7l1.7-1.5l15.3,2h57.3l15.7-2l1.7,1.5
			c0.1,2.8,0.3,6.1,0.6,9.7c0.2,3.6,0.6,7.3,1,11c0.4,3.7,0.8,7.2,1.2,10.5l-8.7,0.7c-0.9-5.5-1.8-9.9-2.7-13s-2.3-5.4-4.2-6.8
			c-1.9-1.4-4.8-2.4-8.6-2.9c-3.8-0.5-9.1-0.9-15.7-1.3c-0.4,3.7-0.7,9-1.1,15.9c-0.4,6.9-0.7,14.6-0.9,23.2
			c-0.2,8.6-0.5,17.3-0.6,26.1c-0.2,8.9-0.3,17.1-0.3,24.6c0,4.6,0.8,7.8,2.4,9.7c1.6,1.9,4.3,2.9,8.1,2.9c3.7,0,7.1-0.2,10.2-0.6
			l0.6,0.7l-1.7,8.5c-2.6-0.1-5.6-0.2-9.1-0.3c-3.4-0.1-6.8-0.1-10.1-0.2c-3.3-0.1-5.9-0.1-8-0.1c-2,0-4.5,0-7.5,0.1
			c-3,0.1-6.1,0.2-9.2,0.3C796.7,159.3,793.9,159.5,791.3,159.6z"/>
	</g>
	<g>
		<path class="st0" d="M11.7,114.1c113.5-11.7,227.7-13.9,341.7-14.8c114.2-0.9,228.3-1.5,342.5-2.3c64.1-0.4,128.3-0.8,192.4-1.3
			c3.9,0,3.9-6,0-6c-114.9,0.8-229.7,1.5-344.6,2.3c-113.8,0.7-227.7,0.3-341.4,3.9c-63.6,2-127.2,5.6-190.6,12.2
			C7.9,108.5,7.8,114.5,11.7,114.1L11.7,114.1z"/>
	</g>
</g>
</svg>
